<svg width="67" height="61" viewBox="0 0 67 61" fill="none" xmlns="http://www.w3.org/2000/svg">
<path fill-rule="evenodd" clip-rule="evenodd" d="M20 0C8.95431 0 0 8.9543 0 20V60.5388C4.23473 55.4218 7.93256 50.5085 11.4859 45.7872C24.8651 28.0102 36.1957 12.9552 66.4245 0C63.3362 2.20596 61.8426 3.22869 60.6841 4.02198C58.5309 5.49644 57.5352 6.17827 49.6082 12.1918C40.7859 18.8846 39.008 24.917 37.4248 30.289C36.8201 32.3407 36.2438 34.2961 35.3143 36.1551C31.5306 43.7225 28.5878 46.2449 22.2816 48.7674C15.9755 51.2898 13.0327 52.551 9.24898 55.9143C6.22204 58.6049 5.18504 60.2585 5.0449 60.5388L46.4245 60.5388C57.4702 60.5388 66.4245 51.5845 66.4245 40.5388V0H20Z" fill="white"/>
<path fill-rule="evenodd" clip-rule="evenodd" d="M20 0C8.95431 0 0 8.9543 0 20V60.5388C4.23473 55.4218 7.93256 50.5085 11.4859 45.7872C24.8651 28.0102 36.1957 12.9552 66.4245 0C63.3362 2.20596 61.8426 3.22869 60.6841 4.02198C58.5309 5.49644 57.5352 6.17827 49.6082 12.1918C40.7859 18.8846 39.008 24.917 37.4248 30.289C36.8201 32.3407 36.2438 34.2961 35.3143 36.1551C31.5306 43.7225 28.5878 46.2449 22.2816 48.7674C15.9755 51.2898 13.0327 52.551 9.24898 55.9143C6.22204 58.6049 5.18504 60.2585 5.0449 60.5388L46.4245 60.5388C57.4702 60.5388 66.4245 51.5845 66.4245 40.5388V0H20Z" fill="url(#paint0_linear_47_108)"/>
<defs>
<linearGradient id="paint0_linear_47_108" x1="6.30077e-07" y1="4.51429" x2="66.4245" y2="45.4653" gradientUnits="userSpaceOnUse">
<stop stop-color="#2D1E57"/>
<stop offset="1" stop-color="#652FFF"/>
</linearGradient>
</defs>
</svg>
